<?xml version="1.0" encoding="utf-8"?>
<!-- Generator: Adobe Illustrator 28.1.0, SVG Export Plug-In . SVG Version: 6.00 Build 0)  -->
<svg version="1.1" id="_x2DC_รรฐ_x5F_3" xmlns="http://www.w3.org/2000/svg" xmlns:xlink="http://www.w3.org/1999/xlink" x="0px"
	 y="0px" viewBox="0 0 560.94 599.06" style="enable-background:new 0 0 560.94 599.06;" xml:space="preserve">
<style type="text/css">
	.st0{fill:#1A1A1A;}
</style>
<g>
	<g>
		<g>
			<path class="st0" d="M240.09,177.72c0,3.65-2.96,6.61-6.62,6.59l-99.18-0.17c-3.63-0.01-6.59-2.97-6.59-6.62l0-2.37
				c0-3.65,2.96-6.61,6.62-6.59l99.18,0.17c3.63,0.01,6.59,2.97,6.59,6.62L240.09,177.72z"/>
		</g>
	</g>
	<g>
		<g>
			<path class="st0" d="M481.45,242.4l0.39,135.56c0,6.41-3.75,12.13-9.46,14.79L342.73,452.7c-4.24,1.97-9.17,1.97-13.41,0
				l-133.99-59.85c-5.82-2.66-9.66-8.48-9.56-14.99l0.59-135.56c0.1-6.31,3.75-12.03,9.46-14.69l129.06-59.85
				c4.24-1.97,9.17-2.07,13.51-0.1l133.49,59.85C477.7,230.17,481.45,235.99,481.45,242.4z M216.33,234.12
				c-2.76,1.28-2.66,5.13,0.1,6.31l43.87,18.83c0.89,0.39,1.87,0.39,2.76,0l114.86-51.56c2.76-1.28,2.76-5.13,0-6.31l-44.96-19.23
				c-0.89-0.39-1.87-0.39-2.76,0L216.33,234.12z M451.38,240.33c2.66-1.28,2.56-5.03-0.1-6.21l-47.62-20.9
				c-0.89-0.39-1.87-0.39-2.76,0l-115.16,51.86c-2.66,1.18-2.66,5.03,0,6.11l48.9,21c0.89,0.39,1.87,0.39,2.76,0L451.38,240.33z
				 M323.5,433.67c2.17,0.99,4.73-0.59,4.73-3.06l-0.79-122.55c0-1.28-0.79-2.46-1.97-3.06l-119.3-53.44
				c-2.17-1.08-4.73,0.59-4.73,3.06l0.39,122.35c0,1.28,0.79,2.56,1.97,3.06L323.5,433.67z M464,380.13
				c1.18-0.49,1.97-1.77,1.97-3.06l-0.1-121.86c0-2.56-2.56-4.24-4.93-3.15L345.69,305.1c-1.18,0.49-1.97,1.77-1.97,3.06
				l-0.1,121.86c0,2.56,2.56,4.24,4.93,3.15L464,380.13z"/>
		</g>
	</g>
	<g>
		<g>
			<path class="st0" d="M151.17,222.43c0,3.9-3.16,7.05-6.98,7.02l-73.16,0.26c-3.87-0.03-7.03-3.08-7.02-6.98l0-0.59
				c0-3.9,3.16-7.05,6.98-7.02l73.16-0.26c3.87,0.03,7.03,3.08,7.02,6.98L151.17,222.43z"/>
		</g>
	</g>
	<g>
		<g>
			<path class="st0" d="M157.38,269.22c0,3.75-2.96,6.7-6.7,6.7h-45.16c-3.75,0-6.7-2.96-6.7-6.7v-0.79c0-3.75,2.96-6.7,6.7-6.7
				h45.16c3.75,0,6.7,2.96,6.7,6.7V269.22z"/>
		</g>
	</g>
	<g>
		<g>
			<path class="st0" d="M151.17,316.32c0,3.28-2.66,6.04-5.98,6.05l-111.21,0.58c-3.29,0.01-6.05-2.66-6.05-5.98l-0.01-1.18
				c0-3.28,2.66-6.04,5.98-6.05l111.21-0.58c3.29,0,6.05,2.66,6.05,5.98L151.17,316.32z"/>
		</g>
	</g>
	<g>
		<g>
			<path class="st0" d="M157.97,364.13c0,3.38-2.76,6.24-6.22,6.2l-66.25-0.12c-3.44-0.04-6.2-2.8-6.2-6.22l0-1.97
				c0-3.38,2.76-6.24,6.22-6.2l66.25,0.12c3.44,0.04,6.2,2.8,6.2,6.22L157.97,364.13z"/>
		</g>
	</g>
</g>
</svg>
