<?xml version="1.0" encoding="utf-8"?>
<!-- Generator: Adobe Illustrator 28.1.0, SVG Export Plug-In . SVG Version: 6.00 Build 0)  -->
<svg version="1.1" id="_x2DC_รรฐ_x5F_3" xmlns="http://www.w3.org/2000/svg" xmlns:xlink="http://www.w3.org/1999/xlink" x="0px"
	 y="0px" viewBox="0 0 560.94 599.06" style="enable-background:new 0 0 560.94 599.06;" xml:space="preserve">
<style type="text/css">
	.st0{fill:#1A1A1A;}
</style>
<g>
	<g>
		<path class="st0" d="M465.99,343.77c2.48-0.83,5.56-0.24,8.99,1.77c5.56,3.08,5.32,11.12-0.35,13.96l-129.28,61.98
			c-3.19,1.54-5.44,4.73-5.91,8.4c-1.06,9.58,1.42,20.34-1.06,29.69c-13.6,51.92-76.29,68.84-111.42,24.13
			c-22.59-28.62-19.99-57.25,7.92-85.99c3.67-3.67,4.49-9.23,2.25-13.96c-33.24-68.84-66.47-137.08-99.47-204.74
			c-15.49-31.93-49.2-35.13-80.55-31.34c-5.8,0.71-9.58-1.77-11.12-7.33l-0.95-3.19c-1.06-3.67,1.54-7.45,5.32-7.92
			c85.04-9.82,96.87,30.63,127.97,93.79c2.96,5.8,7.33,7.33,13.13,4.49l158.49-77.59c7.45-3.67,16.44-0.47,20.11,6.98l89.42,184.16
			C460.67,343.42,463.39,344.6,465.99,343.77z M272.73,267.13l-21.05-42.22c-1.77-3.55-6.03-4.97-9.58-3.19l-47.07,23.3
			c-3.55,1.77-4.49,4.38-2.72,7.92l61.27,124.66c2.25,4.49,5.8,6.27,10.76,5.2c23.3-4.85,43.76,2.37,61.5,21.53
			c2.96,3.19,6.39,3.9,10.29,2.01l104.56-50.39c2.6-1.3,3.78-4.38,2.48-7.1l-83.38-173.27c-2.84-5.8-7.1-7.21-12.89-4.38
			l-33.35,16.68c-4.73,2.37-5.91,5.91-3.43,10.64l19.99,39.5c2.96,5.91,0.59,13.01-5.32,15.97l-37.02,18.21
			C281.01,275.53,276.04,273.87,272.73,267.13z M294.73,206.58c-2.72-5.21-9.11-7.1-14.21-4.45l-7.97,4.16
			c-5.15,2.65-7.16,9.03-4.45,14.2l13.37,25.58c2.72,5.21,9.11,7.1,14.21,4.45l7.97-4.16c5.15-2.65,7.16-9.03,4.45-14.2
			L294.73,206.58z M322.17,445.25c0-25.43-20.7-46.13-46.13-46.13c-25.43,0-46.13,20.7-46.13,46.13c0,25.43,20.7,46.13,46.13,46.13
			C301.47,491.38,322.17,470.68,322.17,445.25z"/>
	</g>
</g>
</svg>
