<?xml version="1.0" encoding="utf-8"?>
<!-- Generator: Adobe Illustrator 28.1.0, SVG Export Plug-In . SVG Version: 6.00 Build 0)  -->
<svg version="1.1" id="_x2DC_รรฐ_x5F_3" xmlns="http://www.w3.org/2000/svg" xmlns:xlink="http://www.w3.org/1999/xlink" x="0px"
	 y="0px" viewBox="0 0 560.94 599.06" style="enable-background:new 0 0 560.94 599.06;" xml:space="preserve">
<style type="text/css">
	.st0{fill:#1A1A1A;}
</style>
<g>
	<g>
		<path class="st0" d="M241.4,307.25c1.6-2.45,0.37-5.89-2.45-6.75l-130.91-36.19c-8.34-2.33-13.62-10.67-12.15-19.26
			c3.93-21.72,22.58-38.16,45.89-36.32c53.86,4.05,105.03,7.85,153.49,11.17c5.89,0.37,11.41-2.45,14.6-7.36
			c23.31-35.83,53.99-96.68,101.59-98.77c4.79-0.25,8.96,1.35,12.51,4.66c21.35,20.12,22.58,44.05,3.68,71.78
			c-16.32,23.93-33.5,48.1-51.78,72.27c-2.82,3.68-3.56,8.47-1.84,12.76c16.56,41.96,35.7,87.6,57.3,136.93
			c10.67,24.54,5.64,46.38-17.42,60.24c-7.24,4.42-16.69,2.33-21.47-4.66l-74.11-109.32c-3.31-4.79-6.75-5.03-10.43-0.49l-32.39,40
			c-3.07,3.8-3.93,7.98-2.45,12.51l15.21,50.3c1.47,4.54,0.86,8.96-1.72,13.01c-5.77,9.45-13.5,16.81-22.94,22.33
			c-3.93,2.33-8.96,0.86-11.04-3.07l-34.72-62.57c-4.05-7.24-11.17-12.15-19.26-13.37l-60.24-9.08
			c-16.56-2.58-20.74-11.17-12.64-25.77l2.09-3.8c6.87-12.39,17.42-18.77,31.66-19.02l40.37-0.61c4.42-0.12,7.85-1.96,10.31-5.64
			L241.4,307.25z M266.43,299.77l-44.54,69.94c-3.31,5.28-8.22,7.85-14.48,7.85l-53.25-0.37c-3.68-0.12-6.75,2.58-7.24,6.26
			l-0.61,4.05c-0.37,2.09,0.49,3.19,2.58,3.56l58.77,9.57c10.31,1.72,19.14,8.1,23.93,17.3l27.97,54.11
			c1.47,2.82,4.79,4.05,7.73,2.82c2.94-1.1,4.42-4.29,3.56-7.36l-16.56-56.56c-2.82-9.69-0.49-17.91,6.75-24.91
			c16.56-15.7,29.94-32.88,40.37-51.65c6.26-11.17,13.01-11.53,20.24-0.98l80.49,116.68c2.58,3.68,7.73,4.29,11.04,1.47
			c2.58-2.33,4.42-5.15,5.28-8.71c1.35-5.52,0.86-11.17-1.47-16.69c-20.74-49.32-41.72-99.87-62.94-151.65
			c-2.21-5.28-1.35-11.29,2.09-15.7c22.58-29.57,42.57-57.67,59.87-84.29c7.48-11.41,7.98-23.56,1.6-36.19
			c-0.86-1.47-1.96-2.45-3.44-2.94c-12.51-4.29-26.26-0.25-34.35,10.06c-19.51,24.91-39.02,52.02-58.77,81.47
			c-5.28,7.73-14.23,12.02-23.56,11.29c-52.88-4.29-107.48-7.24-163.67-9.08c-8.34-0.25-13.13,3.44-14.36,11.17
			c-0.61,4.17,1.84,8.1,5.89,9.2l136.93,39.38C268.51,290.69,269.99,294.25,266.43,299.77z"/>
	</g>
</g>
</svg>
