<?xml version="1.0" encoding="utf-8"?>
<!-- Generator: Adobe Illustrator 28.1.0, SVG Export Plug-In . SVG Version: 6.00 Build 0)  -->
<svg version="1.1" id="_x2DC_รรฐ_x5F_3" xmlns="http://www.w3.org/2000/svg" xmlns:xlink="http://www.w3.org/1999/xlink" x="0px"
	 y="0px" viewBox="0 0 560.94 599.06" style="enable-background:new 0 0 560.94 599.06;" xml:space="preserve">
<style type="text/css">
	.st0{fill:#1A1A1A;}
</style>
<g>
	<g>
		<g>
			<path class="st0" d="M361.58,371.52l0.82-175.53c0-3.8-1.95-5.76-5.76-5.86l-217.25-0.72c-4.62,0-7.19-2.36-7.71-6.99l-0.31-3.08
				c-0.41-3.39,1.13-5.14,4.62-5.14l230.72-0.82c3.7,0,6.37,1.64,8.12,5.04c2.26,4.62,3.19,9.56,2.67,14.9
				c-0.51,5.45,1.95,8.22,7.5,8.12l63.31-0.82c4.11-0.1,7.3,1.64,9.45,5.24c14.7,23.84,30.62,49.02,47.79,75.53
				c16.34,25.28,12.13,59.09,10.17,88.18c-1.03,14.8-9.15,22.92-24.25,24.36c-4.01,0.31-7.19,2.26-9.35,5.76
				c-17.47,27.54-41.31,47.38-72.55,21.48c-8.12-6.68-10.17-15.83-16.85-23.02c-2.36-2.57-5.65-4.01-9.15-4.01l-100.71,0.21
				c-3.7,0-6.58,1.54-8.53,4.73c-18.19,28.67-42.65,48.61-74.82,21.27c-7.09-5.96-9.66-13.36-14.39-20.96
				c-2.06-3.39-5.04-5.04-8.94-5.14l-40.39-0.31c-2.98-0.1-5.14-2.77-4.62-5.76l0.72-4.21c0.62-3.49,3.7-5.96,7.3-5.86l37.72,0.92
				c3.39,0.1,5.96-1.34,7.71-4.11c4.52-7.09,8.02-16.34,14.7-21.68c25.9-20.66,59.61-13.57,72.97,17.88
				c1.95,4.42,5.34,6.68,10.17,6.78l72.04,0.62C359.22,378.61,361.58,376.25,361.58,371.52z M420.57,298.86l-9.76-52.82
				c-0.82-4.21,1.54-8.32,5.45-9.97c9.66-4.01,20.96-4.42,33.91-1.44c3.19,0.72,5.65-2.57,4.11-5.45l-4.73-8.74
				c-1.44-2.67-4.21-4.32-7.19-4.21l-59.4,0.62c-3.6,0-5.45,1.85-5.45,5.45l0.1,148.6c0,2.36,1.13,4.52,3.08,5.86
				c2.47,1.75,5.04,2.26,7.6,1.75c2.47-0.51,4.32-1.95,5.45-4.11c23.74-44.81,65.57-44.09,87.87-0.92c1.75,3.39,4.62,4.93,8.43,4.52
				c6.47-0.72,9.87-4.42,10.07-11.2c0.51-17.37,0.72-34.32,0.51-50.87c0-3.6-2.88-6.47-6.47-6.47l-60.43,0.31
				C426.22,309.76,421.91,306.16,420.57,298.86z M434.75,290.33c0.41,2.26,2.36,3.91,4.62,3.91h47.38c3.8,0,6.06-4.21,4.01-7.3
				l-23.84-36.48c-0.92-1.34-2.47-2.16-4.01-2.16l-30.11,0.31c-2.88,0.1-5.04,2.77-4.52,5.65L434.75,290.33z M258.4,386.83
				c0-16.13-13.05-29.19-29.19-29.19c-16.13,0-29.19,13.05-29.19,29.19s13.05,29.19,29.19,29.19
				C245.35,416.02,258.4,402.97,258.4,386.83z M467.33,386.63c0-16.13-13.05-29.19-29.19-29.19c-16.13,0-29.19,13.05-29.19,29.19
				s13.05,29.19,29.19,29.19C454.28,415.81,467.33,402.76,467.33,386.63z"/>
		</g>
	</g>
	<g>
		<g>
			<path class="st0" d="M144.92,219.47c-0.08,3.66-3.16,6.64-6.86,6.49l-48.69-1.36c-3.72-0.14-6.59-3.22-6.49-6.86l0.02-0.82
				c0.08-3.66,3.16-6.64,6.86-6.49l48.69,1.36c3.72,0.14,6.59,3.22,6.49,6.86L144.92,219.47z"/>
		</g>
	</g>
	<g>
		<g>
			<path class="st0" d="M166.53,262.62c0,3.98-3.29,7.16-7.24,7.14l-53.85-0.38c-3.96-0.02-7.14-3.31-7.14-7.24l0-0.62
				c0-3.98,3.29-7.16,7.24-7.14l53.85,0.38c3.96,0.02,7.14,3.31,7.14,7.24L166.53,262.62z"/>
		</g>
	</g>
	<g>
		<g>
			<path class="st0" d="M142.99,306.47c-0.1,3.8-3.18,6.88-6.97,6.8l-70.49-0.86c-3.82-0.08-6.8-3.17-6.8-6.97l0.01-0.62
				c0.1-3.8,3.18-6.88,6.97-6.8l70.49,0.86c3.82,0.08,6.8,3.17,6.8,6.97L142.99,306.47z"/>
		</g>
	</g>
	<g>
		<g>
			<path class="st0" d="M167.15,350.75c-0.01,3.61-2.88,6.59-6.54,6.61l-69.88,0.37c-3.64,0.02-6.62-2.96-6.61-6.54l-0.01-2.26
				c0.01-3.61,2.88-6.59,6.54-6.61l69.88-0.37c3.64-0.02,6.62,2.96,6.61,6.54L167.15,350.75z"/>
		</g>
	</g>
</g>
</svg>
