<svg width="30" height="42" viewBox="0 0 30 42" fill="none" xmlns="http://www.w3.org/2000/svg">
<path d="M5.19012 1.08124L7.43387 0.364574C9.53387 -0.30626 11.7797 0.779157 12.6797 2.89999L14.4714 7.12499C15.2526 8.96457 14.8193 11.1292 13.4005 12.475L9.45679 16.2208C9.69984 18.4625 10.4526 20.6687 11.7151 22.8396C12.9157 24.9393 14.5244 26.7775 16.4464 28.2458L21.188 26.6625C22.9839 26.0646 24.9401 26.7542 26.0422 28.3729L28.6089 32.1437C29.8922 34.0271 29.661 36.6229 28.0714 38.2187L26.3672 39.9292C24.6714 41.6312 22.2505 42.25 20.0089 41.55C14.72 39.9 9.85679 35.0021 5.41929 26.8562C0.976235 18.6965 -0.591821 11.7743 0.715124 6.08957C1.26512 3.69791 2.96929 1.79166 5.19429 1.08124" fill="white"/>
</svg>
