<?xml version="1.0" encoding="UTF-8"?><svg id="Layer_1" xmlns="http://www.w3.org/2000/svg" viewBox="0 0 348.27 87.8"><defs><style>.cls-1{fill:#371ee1;}</style></defs><path class="cls-1" d="m106.82,27.5c0-7.64,5.97-13.51,13.56-13.51,5.77,0,10.34,3.27,12.31,7.95l-4.99,2.13c-1.3-3.01-3.95-4.88-7.32-4.88-4.62,0-8.1,3.69-8.1,8.31s3.53,8.31,8.21,8.31c3.53,0,6.13-2.18,7.32-5.09l5.04,2.13c-2.08,4.78-6.39,8.16-12.47,8.16-7.69,0-13.56-6.03-13.56-13.51Z"/><path class="cls-1" d="m134.64,27.5c0-8.31,6.18-13.51,12.99-13.51,3.43,0,6.7,1.51,8.62,3.9v-3.38h5.56v25.97h-5.56v-3.58c-1.97,2.55-5.25,4.1-8.67,4.1-6.6,0-12.93-5.25-12.93-13.51Zm21.92-.05c0-4.62-3.48-8.41-8.21-8.41s-8.21,3.69-8.21,8.41,3.58,8.47,8.21,8.47,8.21-3.79,8.21-8.47Z"/><path class="cls-1" d="m166.66,14.52h5.56v4.1c1.4-2.65,3.95-4.1,7.58-4.1h2.49v5.3h-3.38c-4.73,0-6.65,2.39-6.65,7.79v12.88h-5.61V14.52Z"/><path class="cls-1" d="m183.73,27.5c0-8.31,6.18-13.51,12.99-13.51,3.43,0,6.65,1.56,8.62,4.05v-3.53h5.56v25.35c0,7.64-4.78,13.25-13.09,13.25-6.49,0-10.91-3.12-12.88-7.32l5.14-2.44c1.3,2.86,3.79,4.68,7.74,4.68,4.73,0,7.58-3.48,7.58-7.95v-3.27c-1.97,2.6-5.3,4.21-8.73,4.21-6.6,0-12.93-5.25-12.93-13.51Zm21.92-.05c0-4.62-3.48-8.41-8.21-8.41s-8.21,3.69-8.21,8.41,3.58,8.47,8.21,8.47,8.21-3.79,8.21-8.47Z"/><path class="cls-1" d="m214.55,27.5c0-7.58,5.97-13.51,13.45-13.51s13.51,5.92,13.51,13.51-6.03,13.51-13.51,13.51-13.45-5.97-13.45-13.51Zm21.45,0c0-4.57-3.53-8.31-8-8.31s-7.95,3.74-7.95,8.31,3.48,8.31,7.95,8.31,8-3.74,8-8.31Z"/><path class="cls-1" d="m242.19,14.47l5.66.05,5.92,18.44,6.8-18.44h5.51l6.7,18.44,6.13-18.44h5.66l-9.04,25.97h-5.35l-6.91-18.54-7.01,18.54h-5.45l-8.62-26.02Z"/><path class="cls-1" d="m290.08,3.04c2.18,0,3.74,1.56,3.74,3.74s-1.56,3.74-3.74,3.74-3.74-1.56-3.74-3.74,1.56-3.74,3.74-3.74Zm-2.81,11.48h5.61v25.97h-5.61V14.52Z"/><path class="cls-1" d="m295.52,35.14l4.99-2.7c1.51,2.44,3.74,3.74,6.86,3.74s4.88-1.56,4.88-3.38c0-2.13-3.12-2.6-6.44-3.32-4.42-.88-9.09-2.34-9.09-7.69,0-4.1,3.95-7.9,10.13-7.84,5.04,0,8.41,1.87,10.6,5.04l-4.67,2.55c-1.25-1.87-3.17-2.96-5.92-2.96-3.07,0-4.52,1.4-4.52,3.12,0,1.87,2.23,2.29,6.18,3.17,4.36.93,9.3,2.39,9.3,7.84,0,3.9-3.48,8.36-10.7,8.31-5.61,0-9.35-2.03-11.58-5.87Z"/><path class="cls-1" d="m319.92,27.61c0-7.64,5.87-13.61,13.51-13.61s13.35,5.56,13.35,13.25v2.18h-21.51c.73,4,3.84,6.65,8.36,6.65,3.53,0,6.23-1.87,7.58-4.68l4.57,2.55c-2.29,4.26-6.39,7.06-12.16,7.06-8.21,0-13.71-5.87-13.71-13.4Zm5.61-2.91h15.58c-.83-3.74-3.69-5.82-7.69-5.82s-6.86,2.39-7.9,5.82Z"/><path class="cls-1" d="m16.68,10.15h22.75V2.57h-22.75v7.58Zm7.57,22.75H1.5v7.58h22.75v-7.58Zm-7.57,53.09h22.75v-7.58h-22.75v7.58ZM47.02,2.57v7.58h37.92V2.57h-37.92Zm0,22.75h37.92v-7.58h-37.92v7.58Zm0,15.17h37.92v-7.58h-37.92v7.58Zm-7.6,7.58H1.49v7.58h37.92v-7.58Zm7.54,22.75h37.92v-7.58h-37.92v7.58Z"/><path class="cls-1" d="m107.05,59.49h2.85v4.96c1.73-3.22,5.2-5.45,9.66-5.45,6.94,0,11.52,4.58,11.52,12.02v14.49h-2.97v-14.49c0-5.57-3.22-9.29-8.92-9.29-5.2,0-9.29,3.96-9.29,9.29v14.49h-2.97v-26.02h.12Z"/><path class="cls-1" d="m135.18,72.62c0-7.68,5.7-13.63,13.5-13.63s13.38,5.45,13.38,13.26v1.24h-24.03c.37,5.7,4.71,9.91,10.78,9.91,4.83,0,8.18-2.48,9.79-6.57l2.6,1.24c-2.35,4.96-6.32,7.93-12.39,7.93-8.3,0-13.63-5.7-13.63-13.38Zm2.97-1.86h20.81c-.62-5.45-4.46-9.17-10.28-9.17-5.45,0-9.79,3.96-10.53,9.17Z"/><path class="cls-1" d="m179.66,58.99c7.43,0,13.5,6.07,13.5,13.5s-6.07,13.5-13.5,13.5c-7.8,0-13.5-6.07-13.5-13.5s5.95-13.5,13.5-13.5Zm0,24.4c5.82,0,10.53-4.83,10.53-10.78s-4.71-10.78-10.53-10.78-10.53,4.83-10.53,10.78,4.58,10.78,10.53,10.78Z"/></svg>