<svg width="267" height="52" viewBox="0 0 267 52" fill="none" xmlns="http://www.w3.org/2000/svg">
<g clip-path="url(#clip0_1137_1315)">
<rect width="267" height="52" rx="13" fill="#2C66B2"/>
<path d="M22.37 26.51C22.37 25.83 22.5267 25.22 22.84 24.68C23.16 24.14 23.59 23.72 24.13 23.42C24.6767 23.1133 25.2733 22.96 25.92 22.96C26.66 22.96 27.3167 23.1433 27.89 23.51C28.47 23.87 28.89 24.3833 29.15 25.05H27.78C27.6 24.6833 27.35 24.41 27.03 24.23C26.71 24.05 26.34 23.96 25.92 23.96C25.46 23.96 25.05 24.0633 24.69 24.27C24.33 24.4767 24.0467 24.7733 23.84 25.16C23.64 25.5467 23.54 25.9967 23.54 26.51C23.54 27.0233 23.64 27.4733 23.84 27.86C24.0467 28.2467 24.33 28.5467 24.69 28.76C25.05 28.9667 25.46 29.07 25.92 29.07C26.34 29.07 26.71 28.98 27.03 28.8C27.35 28.62 27.6 28.3467 27.78 27.98H29.15C28.89 28.6467 28.47 29.16 27.89 29.52C27.3167 29.88 26.66 30.06 25.92 30.06C25.2667 30.06 24.67 29.91 24.13 29.61C23.59 29.3033 23.16 28.88 22.84 28.34C22.5267 27.8 22.37 27.19 22.37 26.51ZM32.8744 30.09C32.3544 30.09 31.8844 29.9733 31.4644 29.74C31.0444 29.5 30.7144 29.1667 30.4744 28.74C30.2344 28.3067 30.1144 27.8067 30.1144 27.24C30.1144 26.68 30.2377 26.1833 30.4844 25.75C30.731 25.3167 31.0677 24.9833 31.4944 24.75C31.921 24.5167 32.3977 24.4 32.9244 24.4C33.451 24.4 33.9277 24.5167 34.3544 24.75C34.781 24.9833 35.1177 25.3167 35.3644 25.75C35.611 26.1833 35.7344 26.68 35.7344 27.24C35.7344 27.8 35.6077 28.2967 35.3544 28.73C35.101 29.1633 34.7544 29.5 34.3144 29.74C33.881 29.9733 33.401 30.09 32.8744 30.09ZM32.8744 29.1C33.1677 29.1 33.441 29.03 33.6944 28.89C33.9544 28.75 34.1644 28.54 34.3244 28.26C34.4844 27.98 34.5644 27.64 34.5644 27.24C34.5644 26.84 34.4877 26.5033 34.3344 26.23C34.181 25.95 33.9777 25.74 33.7244 25.6C33.471 25.46 33.1977 25.39 32.9044 25.39C32.611 25.39 32.3377 25.46 32.0844 25.6C31.8377 25.74 31.641 25.95 31.4944 26.23C31.3477 26.5033 31.2744 26.84 31.2744 27.24C31.2744 27.8333 31.4244 28.2933 31.7244 28.62C32.031 28.94 32.4144 29.1 32.8744 29.1ZM39.6413 24.4C40.0747 24.4 40.4613 24.49 40.8013 24.67C41.148 24.85 41.418 25.1167 41.6113 25.47C41.8047 25.8233 41.9013 26.25 41.9013 26.75V30H40.7713V26.92C40.7713 26.4267 40.648 26.05 40.4013 25.79C40.1547 25.5233 39.818 25.39 39.3913 25.39C38.9647 25.39 38.6247 25.5233 38.3713 25.79C38.1247 26.05 38.0013 26.4267 38.0013 26.92V30H36.8613V24.49H38.0013V25.12C38.188 24.8933 38.4247 24.7167 38.7113 24.59C39.0047 24.4633 39.3147 24.4 39.6413 24.4ZM46.1355 24.4C46.5688 24.4 46.9555 24.49 47.2955 24.67C47.6421 24.85 47.9121 25.1167 48.1055 25.47C48.2988 25.8233 48.3955 26.25 48.3955 26.75V30H47.2655V26.92C47.2655 26.4267 47.1421 26.05 46.8955 25.79C46.6488 25.5233 46.3121 25.39 45.8855 25.39C45.4588 25.39 45.1188 25.5233 44.8655 25.79C44.6188 26.05 44.4955 26.4267 44.4955 26.92V30H43.3555V24.49H44.4955V25.12C44.6821 24.8933 44.9188 24.7167 45.2055 24.59C45.4988 24.4633 45.8088 24.4 46.1355 24.4ZM54.8996 27.11C54.8996 27.3167 54.8863 27.5033 54.8596 27.67H50.6496C50.6829 28.11 50.8463 28.4633 51.1396 28.73C51.4329 28.9967 51.7929 29.13 52.2196 29.13C52.8329 29.13 53.2663 28.8733 53.5196 28.36H54.7496C54.5829 28.8667 54.2796 29.2833 53.8396 29.61C53.4063 29.93 52.8663 30.09 52.2196 30.09C51.6929 30.09 51.2196 29.9733 50.7996 29.74C50.3863 29.5 50.0596 29.1667 49.8196 28.74C49.5863 28.3067 49.4696 27.8067 49.4696 27.24C49.4696 26.6733 49.5829 26.1767 49.8096 25.75C50.0429 25.3167 50.3663 24.9833 50.7796 24.75C51.1996 24.5167 51.6796 24.4 52.2196 24.4C52.7396 24.4 53.2029 24.5133 53.6096 24.74C54.0163 24.9667 54.3329 25.2867 54.5596 25.7C54.7863 26.1067 54.8996 26.5767 54.8996 27.11ZM53.7096 26.75C53.7029 26.33 53.5529 25.9933 53.2596 25.74C52.9663 25.4867 52.6029 25.36 52.1696 25.36C51.7763 25.36 51.4396 25.4867 51.1596 25.74C50.8796 25.9867 50.7129 26.3233 50.6596 26.75H53.7096ZM55.6415 27.24C55.6415 26.6733 55.7548 26.1767 55.9815 25.75C56.2148 25.3167 56.5348 24.9833 56.9415 24.75C57.3482 24.5167 57.8148 24.4 58.3415 24.4C59.0082 24.4 59.5582 24.56 59.9915 24.88C60.4315 25.1933 60.7282 25.6433 60.8815 26.23H59.6515C59.5515 25.9567 59.3915 25.7433 59.1715 25.59C58.9515 25.4367 58.6748 25.36 58.3415 25.36C57.8748 25.36 57.5015 25.5267 57.2215 25.86C56.9482 26.1867 56.8115 26.6467 56.8115 27.24C56.8115 27.8333 56.9482 28.2967 57.2215 28.63C57.5015 28.9633 57.8748 29.13 58.3415 29.13C59.0015 29.13 59.4382 28.84 59.6515 28.26H60.8815C60.7215 28.82 60.4215 29.2667 59.9815 29.6C59.5415 29.9267 58.9948 30.09 58.3415 30.09C57.8148 30.09 57.3482 29.9733 56.9415 29.74C56.5348 29.5 56.2148 29.1667 55.9815 28.74C55.7548 28.3067 55.6415 27.8067 55.6415 27.24ZM63.3476 25.42V28.47C63.3476 28.6767 63.3942 28.8267 63.4876 28.92C63.5876 29.0067 63.7542 29.05 63.9876 29.05H64.6876V30H63.7876C63.2742 30 62.8809 29.88 62.6076 29.64C62.3342 29.4 62.1976 29.01 62.1976 28.47V25.42H61.5476V24.49H62.1976V23.12H63.3476V24.49H64.6876V25.42H63.3476ZM75.7359 24.49L74.0259 30H72.8259L71.7159 25.93L70.6059 30H69.4059L67.6859 24.49H68.8459L69.9959 28.92L71.1659 24.49H72.3559L73.4759 28.9L74.6159 24.49H75.7359ZM77.1679 23.76C76.9612 23.76 76.7879 23.69 76.6479 23.55C76.5079 23.41 76.4379 23.2367 76.4379 23.03C76.4379 22.8233 76.5079 22.65 76.6479 22.51C76.7879 22.37 76.9612 22.3 77.1679 22.3C77.3679 22.3 77.5379 22.37 77.6779 22.51C77.8179 22.65 77.8879 22.8233 77.8879 23.03C77.8879 23.2367 77.8179 23.41 77.6779 23.55C77.5379 23.69 77.3679 23.76 77.1679 23.76ZM77.7279 24.49V30H76.5879V24.49H77.7279ZM80.5546 25.42V28.47C80.5546 28.6767 80.6013 28.8267 80.6946 28.92C80.7946 29.0067 80.9613 29.05 81.1946 29.05H81.8946V30H80.9946C80.4813 30 80.0879 29.88 79.8146 29.64C79.5413 29.4 79.4046 29.01 79.4046 28.47V25.42H78.7546V24.49H79.4046V23.12H80.5546V24.49H81.8946V25.42H80.5546ZM85.7953 24.4C86.2153 24.4 86.5886 24.49 86.9153 24.67C87.2486 24.85 87.5086 25.1167 87.6953 25.47C87.8886 25.8233 87.9853 26.25 87.9853 26.75V30H86.8553V26.92C86.8553 26.4267 86.732 26.05 86.4853 25.79C86.2386 25.5233 85.902 25.39 85.4753 25.39C85.0486 25.39 84.7086 25.5233 84.4553 25.79C84.2086 26.05 84.0853 26.4267 84.0853 26.92V30H82.9453V22.6H84.0853V25.13C84.2786 24.8967 84.522 24.7167 84.8153 24.59C85.1153 24.4633 85.442 24.4 85.7953 24.4ZM97.0271 24.49V30H95.8871V29.35C95.7071 29.5767 95.4704 29.7567 95.1771 29.89C94.8904 30.0167 94.5838 30.08 94.2571 30.08C93.8238 30.08 93.4338 29.99 93.0871 29.81C92.7471 29.63 92.4771 29.3633 92.2771 29.01C92.0838 28.6567 91.9871 28.23 91.9871 27.73V24.49H93.1171V27.56C93.1171 28.0533 93.2404 28.4333 93.4871 28.7C93.7338 28.96 94.0704 29.09 94.4971 29.09C94.9238 29.09 95.2604 28.96 95.5071 28.7C95.7604 28.4333 95.8871 28.0533 95.8871 27.56V24.49H97.0271ZM100.531 30.09C100.098 30.09 99.7079 30.0133 99.3613 29.86C99.0213 29.7 98.7513 29.4867 98.5513 29.22C98.3513 28.9467 98.2446 28.6433 98.2313 28.31H99.4113C99.4313 28.5433 99.5413 28.74 99.7413 28.9C99.9479 29.0533 100.205 29.13 100.511 29.13C100.831 29.13 101.078 29.07 101.251 28.95C101.431 28.8233 101.521 28.6633 101.521 28.47C101.521 28.2633 101.421 28.11 101.221 28.01C101.028 27.91 100.718 27.8 100.291 27.68C99.8779 27.5667 99.5413 27.4567 99.2813 27.35C99.0213 27.2433 98.7946 27.08 98.6013 26.86C98.4146 26.64 98.3213 26.35 98.3213 25.99C98.3213 25.6967 98.4079 25.43 98.5813 25.19C98.7546 24.9433 99.0013 24.75 99.3213 24.61C99.6479 24.47 100.021 24.4 100.441 24.4C101.068 24.4 101.571 24.56 101.951 24.88C102.338 25.1933 102.545 25.6233 102.571 26.17H101.431C101.411 25.9233 101.311 25.7267 101.131 25.58C100.951 25.4333 100.708 25.36 100.401 25.36C100.101 25.36 99.8713 25.4167 99.7113 25.53C99.5513 25.6433 99.4713 25.7933 99.4713 25.98C99.4713 26.1267 99.5246 26.25 99.6313 26.35C99.7379 26.45 99.8679 26.53 100.021 26.59C100.175 26.6433 100.401 26.7133 100.701 26.8C101.101 26.9067 101.428 27.0167 101.681 27.13C101.941 27.2367 102.165 27.3967 102.351 27.61C102.538 27.8233 102.635 28.1067 102.641 28.46C102.641 28.7733 102.555 29.0533 102.381 29.3C102.208 29.5467 101.961 29.74 101.641 29.88C101.328 30.02 100.958 30.09 100.531 30.09ZM108.861 30.09C108.341 30.09 107.871 29.9733 107.451 29.74C107.031 29.5 106.701 29.1667 106.461 28.74C106.221 28.3067 106.101 27.8067 106.101 27.24C106.101 26.68 106.224 26.1833 106.471 25.75C106.717 25.3167 107.054 24.9833 107.481 24.75C107.907 24.5167 108.384 24.4 108.911 24.4C109.437 24.4 109.914 24.5167 110.341 24.75C110.767 24.9833 111.104 25.3167 111.351 25.75C111.597 26.1833 111.721 26.68 111.721 27.24C111.721 27.8 111.594 28.2967 111.341 28.73C111.087 29.1633 110.741 29.5 110.301 29.74C109.867 29.9733 109.387 30.09 108.861 30.09ZM108.861 29.1C109.154 29.1 109.427 29.03 109.681 28.89C109.941 28.75 110.151 28.54 110.311 28.26C110.471 27.98 110.551 27.64 110.551 27.24C110.551 26.84 110.474 26.5033 110.321 26.23C110.167 25.95 109.964 25.74 109.711 25.6C109.457 25.46 109.184 25.39 108.891 25.39C108.597 25.39 108.324 25.46 108.071 25.6C107.824 25.74 107.627 25.95 107.481 26.23C107.334 26.5033 107.261 26.84 107.261 27.24C107.261 27.8333 107.411 28.2933 107.711 28.62C108.017 28.94 108.401 29.1 108.861 29.1ZM115.628 24.4C116.061 24.4 116.448 24.49 116.788 24.67C117.134 24.85 117.404 25.1167 117.598 25.47C117.791 25.8233 117.888 26.25 117.888 26.75V30H116.758V26.92C116.758 26.4267 116.634 26.05 116.388 25.79C116.141 25.5233 115.804 25.39 115.378 25.39C114.951 25.39 114.611 25.5233 114.358 25.79C114.111 26.05 113.988 26.4267 113.988 26.92V30H112.848V24.49H113.988V25.12C114.174 24.8933 114.411 24.7167 114.698 24.59C114.991 24.4633 115.301 24.4 115.628 24.4Z" fill="white"/>
<path d="M138.766 15.475H143.204V31.6289H151.416V35.7258H138.766V15.475ZM153.374 22.0066H157.633V35.7168H153.374V22.0066ZM155.504 15.1875C155.992 15.1875 156.47 15.3324 156.876 15.6039C157.282 15.8754 157.599 16.2612 157.786 16.7127C157.973 17.1642 158.022 17.6609 157.927 18.1402C157.831 18.6195 157.596 19.0597 157.251 19.4053C156.905 19.7508 156.465 19.9861 155.986 20.0814C155.506 20.1768 155.009 20.1278 154.558 19.9408C154.107 19.7538 153.721 19.4372 153.449 19.0309C153.178 18.6245 153.033 18.1469 153.033 17.6582C153.033 17.0029 153.293 16.3745 153.756 15.9112C154.22 15.4478 154.848 15.1875 155.504 15.1875ZM175.458 15.475H179.716V27.577L184.55 21.9887H189.77L184.182 28.3406L189.653 35.7258H184.298L179.77 28.9426H179.716V35.7258H175.458V15.475ZM159.996 22.0066H164.057V23.8844H164.111C164.52 23.185 165.111 22.6094 165.822 22.2187C166.532 21.828 167.334 21.6368 168.145 21.6652C172.466 21.6652 173.257 24.5043 173.257 28.1969V35.7258H169.034V29.0504C169.034 27.4602 169.034 25.4566 166.815 25.4566C164.596 25.4566 164.254 27.1906 164.254 28.9785V35.7617H159.996V22.0066Z" fill="white"/>
<path d="M198.746 27.2644C198.755 26.9187 198.693 26.5748 198.565 26.2537C198.437 25.9326 198.244 25.641 198 25.3964C197.755 25.1519 197.464 24.9597 197.143 24.8313C196.822 24.703 196.478 24.6413 196.132 24.6499C195.387 24.6028 194.654 24.8507 194.091 25.34C193.528 25.8292 193.18 26.5205 193.122 27.2644H198.746ZM202.34 33.3468C201.629 34.1986 200.739 34.8821 199.732 35.3482C198.725 35.8142 197.628 36.0512 196.518 36.0421C192.26 36.0421 188.846 33.203 188.846 28.7917C188.846 24.3804 192.26 21.5503 196.518 21.5503C200.498 21.5503 202.996 24.3894 202.996 28.7917V30.1304H193.113C193.231 30.892 193.621 31.585 194.21 32.0808C194.8 32.5765 195.55 32.8412 196.321 32.8257C196.928 32.8248 197.524 32.6703 198.055 32.3765C198.586 32.0827 199.034 31.6593 199.357 31.1456L202.34 33.3468ZM211.882 25.3148C211.186 25.2933 210.5 25.4799 209.911 25.8506C209.323 26.2214 208.858 26.7594 208.577 27.3958C208.296 28.0323 208.211 28.7381 208.333 29.423C208.456 30.1079 208.78 30.7407 209.264 31.2403C209.748 31.7399 210.371 32.0836 211.051 32.2274C211.732 32.3713 212.44 32.3086 213.085 32.0476C213.73 31.7865 214.282 31.3389 214.671 30.7621C215.06 30.1852 215.268 29.5054 215.269 28.8097C215.307 28.348 215.245 27.8835 215.088 27.4477C214.931 27.0118 214.683 26.6148 214.359 26.2834C214.035 25.952 213.644 25.694 213.212 25.5269C212.78 25.3598 212.317 25.2874 211.855 25.3148M219.222 35.7187H215.269V33.9218C214.775 34.5805 214.137 35.1173 213.403 35.491C212.67 35.8648 211.86 36.0656 211.037 36.078C206.94 36.078 204.245 33.1222 204.245 28.9444C204.245 25.1081 206.635 21.5862 210.534 21.5862C211.354 21.5142 212.179 21.6398 212.94 21.9524C213.702 22.2651 214.377 22.7557 214.909 23.3831H214.963V15.4769H219.222V35.7187ZM249.948 11.2273H225.475C225.197 11.2237 224.921 11.2755 224.664 11.3796C224.406 11.4838 224.171 11.6382 223.974 11.8339C223.777 12.0296 223.62 12.2627 223.514 12.5195C223.408 12.7763 223.353 13.0517 223.355 13.3296V37.9019C223.357 38.1775 223.414 38.45 223.522 38.7037C223.63 38.9574 223.787 39.1872 223.984 39.3801C224.181 39.5729 224.414 39.7249 224.67 39.8274C224.926 39.9299 225.199 39.9808 225.475 39.9773H249.948C250.227 39.9844 250.504 39.9362 250.763 39.8355C251.023 39.7347 251.26 39.5834 251.46 39.3903C251.661 39.1972 251.821 38.9662 251.932 38.7107C252.042 38.4552 252.101 38.1803 252.105 37.9019V13.3296C252.105 13.0489 252.049 12.7711 251.94 12.5124C251.831 12.2538 251.671 12.0196 251.47 11.8236C251.269 11.6277 251.031 11.474 250.77 11.3715C250.508 11.2691 250.229 11.2201 249.948 11.2273ZM231.872 35.7276H227.613V22.0085H231.872V35.7276ZM229.743 20.1487C229.254 20.1487 228.776 20.0038 228.37 19.7323C227.964 19.4609 227.647 19.075 227.46 18.6235C227.273 18.1721 227.224 17.6753 227.319 17.196C227.415 16.7168 227.65 16.2765 227.996 15.931C228.341 15.5854 228.781 15.3501 229.261 15.2548C229.74 15.1595 230.237 15.2084 230.688 15.3954C231.14 15.5824 231.525 15.8991 231.797 16.3054C232.068 16.7117 232.213 17.1894 232.213 17.678C232.213 18.3333 231.953 18.9617 231.49 19.4251C231.026 19.8884 230.398 20.1487 229.743 20.1487ZM247.828 35.7276H243.57V29.0612C243.57 27.471 243.57 25.4675 241.359 25.4675C239.149 25.4675 238.799 27.2015 238.799 28.9894V35.7726H234.54V22.0085H238.628V23.8952H238.682C239.093 23.1975 239.685 22.6237 240.395 22.2347C241.105 21.8456 241.907 21.6557 242.716 21.6851C247.029 21.6851 247.828 24.5241 247.828 28.2167V35.7276Z" fill="white"/>
</g>
<defs>
<clipPath id="clip0_1137_1315">
<rect width="267" height="52" fill="white"/>
</clipPath>
</defs>
</svg>
